<svg id="svg" version="1.1" xmlns="http://www.w3.org/2000/svg" xmlns:xlink="http://www.w3.org/1999/xlink" width="400" height="675.1381215469613" viewBox="0, 0, 400,675.1381215469613"><g id="svgg"><path id="path0" d="M238.500 0.693 C 237.565 0.777,236.800 0.986,236.800 1.158 C 236.800 1.330,234.730 1.709,232.200 2.000 C 229.670 2.291,227.600 2.643,227.600 2.781 C 227.600 2.919,225.575 3.267,223.100 3.555 C 220.625 3.843,218.420 4.221,218.200 4.395 C 217.980 4.569,216.495 4.839,214.900 4.996 C 213.305 5.153,212.000 5.416,212.000 5.581 C 212.000 5.745,209.840 6.114,207.200 6.400 C 204.560 6.686,202.400 7.042,202.400 7.191 C 202.400 7.340,200.375 7.691,197.900 7.972 C 195.425 8.252,193.220 8.621,193.000 8.791 C 192.780 8.962,191.565 9.226,190.300 9.379 C 188.045 9.652,186.840 11.636,188.359 12.575 C 188.557 12.697,188.847 14.103,189.004 15.698 C 189.161 17.294,189.425 18.780,189.591 19.000 C 189.758 19.220,190.129 21.425,190.417 23.900 C 190.705 26.375,191.058 28.400,191.200 28.400 C 191.342 28.400,191.695 30.384,191.983 32.810 C 192.272 35.235,192.645 37.304,192.812 37.407 C 192.979 37.511,193.244 39.037,193.400 40.798 C 193.556 42.559,193.815 44.000,193.977 44.000 C 194.138 44.000,194.501 46.070,194.783 48.600 C 195.065 51.130,195.423 53.200,195.579 53.200 C 195.735 53.200,196.091 55.225,196.372 57.700 C 196.652 60.175,197.021 62.380,197.192 62.600 C 197.363 62.820,197.632 64.246,197.791 65.768 C 197.949 67.291,198.233 68.821,198.423 69.168 C 198.613 69.516,199.054 71.780,199.404 74.200 C 199.753 76.620,200.243 79.992,200.491 81.694 L 200.942 84.787 206.371 84.573 C 209.357 84.456,212.430 84.179,213.200 83.959 C 214.681 83.535,237.569 83.632,239.000 84.068 C 239.440 84.202,243.985 84.445,249.100 84.607 L 258.400 84.902 258.400 83.931 C 258.400 83.397,258.246 82.789,258.058 82.580 C 257.870 82.371,257.488 80.310,257.209 78.000 C 256.930 75.690,256.562 73.620,256.391 73.400 C 256.220 73.180,255.951 71.605,255.793 69.900 C 255.635 68.195,255.370 66.800,255.205 66.800 C 255.039 66.800,254.682 64.775,254.411 62.300 C 254.140 59.825,253.778 57.620,253.608 57.400 C 253.437 57.180,253.073 55.110,252.800 52.800 C 252.527 50.490,252.162 48.420,251.991 48.200 C 251.819 47.980,251.549 46.540,251.391 45.000 C 251.232 43.460,250.969 42.020,250.805 41.800 C 250.640 41.580,250.271 39.375,249.983 36.900 C 249.695 34.425,249.332 32.400,249.176 32.400 C 249.021 32.400,248.767 31.050,248.613 29.400 C 248.458 27.750,248.201 26.400,248.041 26.400 C 247.881 26.400,247.510 24.240,247.216 21.600 C 246.923 18.960,246.558 16.800,246.406 16.800 C 246.254 16.800,245.899 14.730,245.617 12.200 C 245.335 9.670,244.967 7.600,244.799 7.600 C 244.631 7.600,244.365 6.205,244.207 4.500 C 243.806 0.170,243.865 0.210,238.500 0.693 M151.600 11.558 C 151.600 11.755,150.160 12.044,148.400 12.200 C 146.640 12.356,145.200 12.620,145.200 12.788 C 145.200 12.956,143.175 13.321,140.700 13.600 C 138.225 13.879,136.020 14.241,135.800 14.405 C 135.580 14.569,133.510 14.927,131.200 15.200 C 128.890 15.473,126.820 15.840,126.600 16.014 C 126.380 16.189,124.895 16.460,123.300 16.618 C 121.705 16.775,120.400 17.022,120.400 17.168 C 120.400 17.313,118.375 17.667,115.900 17.955 C 113.425 18.243,111.220 18.615,111.000 18.782 C 110.780 18.949,108.659 19.318,106.286 19.603 C 103.913 19.888,101.878 20.274,101.762 20.461 C 101.647 20.647,101.113 20.800,100.576 20.800 C 99.564 20.800,99.068 23.224,99.966 23.779 C 100.167 23.904,100.459 25.354,100.613 27.003 C 100.768 28.651,101.021 30.000,101.176 30.000 C 101.332 30.000,101.695 32.025,101.983 34.500 C 102.271 36.975,102.635 39.180,102.792 39.400 C 102.949 39.620,103.307 41.690,103.588 44.000 C 103.868 46.310,104.236 48.380,104.404 48.600 C 104.573 48.820,104.839 50.305,104.996 51.900 C 105.153 53.495,105.405 54.800,105.557 54.800 C 105.708 54.800,106.067 56.825,106.355 59.300 C 106.643 61.775,107.017 63.980,107.186 64.200 C 107.355 64.420,107.721 66.625,108.000 69.100 C 108.279 71.575,108.642 73.600,108.806 73.600 C 108.971 73.600,109.235 74.995,109.393 76.700 C 109.551 78.405,109.820 79.980,109.991 80.200 C 110.163 80.420,110.527 82.490,110.800 84.800 C 111.073 87.110,111.438 89.180,111.609 89.400 C 111.781 89.620,112.051 91.060,112.209 92.600 C 112.368 94.140,112.631 95.580,112.795 95.800 C 112.960 96.020,113.329 98.225,113.617 100.700 C 113.905 103.175,114.289 105.200,114.471 105.200 C 114.652 105.200,114.800 105.560,114.800 106.000 C 114.800 106.945,115.045 106.981,116.461 106.241 C 117.045 105.937,118.187 105.468,119.000 105.200 C 119.813 104.932,120.955 104.463,121.539 104.159 C 122.122 103.854,122.825 103.604,123.100 103.602 C 123.375 103.601,123.600 103.442,123.600 103.250 C 123.600 103.057,124.154 102.789,124.832 102.654 C 125.509 102.518,126.634 102.144,127.332 101.821 C 128.632 101.221,131.117 100.296,133.600 99.488 C 134.370 99.237,135.090 98.916,135.200 98.774 C 135.310 98.632,136.390 98.284,137.600 98.000 C 138.810 97.716,139.890 97.360,140.000 97.208 C 140.110 97.056,141.280 96.644,142.600 96.293 C 147.754 94.918,148.607 94.659,148.800 94.407 C 148.910 94.264,150.305 93.904,151.900 93.609 C 153.495 93.313,154.800 92.941,154.800 92.782 C 154.800 92.623,155.790 92.368,157.000 92.217 C 158.210 92.066,159.200 91.804,159.200 91.636 C 159.200 91.467,160.738 91.090,162.618 90.797 C 164.498 90.505,166.128 90.116,166.242 89.933 C 166.355 89.750,166.994 89.600,167.663 89.600 L 168.879 89.600 168.591 87.100 C 168.433 85.725,168.171 84.510,168.008 84.400 C 167.846 84.290,167.582 82.850,167.422 81.200 C 167.263 79.550,166.990 78.020,166.817 77.800 C 166.644 77.580,166.292 75.600,166.034 73.400 C 165.777 71.200,165.404 69.040,165.206 68.600 C 165.008 68.160,164.558 65.820,164.207 63.400 C 162.916 54.511,162.656 52.996,162.390 52.800 C 162.240 52.690,161.879 50.575,161.588 48.100 C 161.297 45.625,160.929 43.600,160.771 43.600 C 160.613 43.600,160.356 42.160,160.200 40.400 C 160.044 38.640,159.785 37.200,159.623 37.200 C 159.462 37.200,159.099 35.130,158.817 32.600 C 158.535 30.070,158.177 28.000,158.021 28.000 C 157.865 28.000,157.509 25.975,157.228 23.500 C 156.948 21.025,156.577 18.820,156.404 18.600 C 156.231 18.380,155.957 16.860,155.796 15.223 C 155.635 13.586,155.268 12.011,154.980 11.723 C 154.394 11.137,151.600 11.001,151.600 11.558 M228.239 238.900 C 228.386 240.055,228.641 241.180,228.805 241.400 C 228.969 241.620,229.327 243.690,229.600 246.000 C 229.873 248.310,230.238 250.380,230.409 250.600 C 230.581 250.820,230.851 252.260,231.009 253.800 C 231.168 255.340,231.431 256.780,231.595 257.000 C 231.760 257.220,232.129 259.425,232.417 261.900 C 232.705 264.375,233.060 266.400,233.206 266.400 C 233.351 266.400,233.709 268.470,234.000 271.000 C 234.291 273.530,234.662 275.600,234.823 275.600 C 234.985 275.600,235.244 277.040,235.400 278.800 C 235.556 280.560,235.815 282.000,235.977 282.000 C 236.138 282.000,236.501 284.070,236.783 286.600 C 237.065 289.130,237.423 291.200,237.579 291.200 C 237.735 291.200,238.091 293.225,238.372 295.700 C 238.652 298.175,239.021 300.380,239.192 300.600 C 239.363 300.820,239.632 302.246,239.791 303.768 C 239.949 305.291,240.233 306.821,240.423 307.168 C 240.613 307.516,241.053 309.780,241.400 312.200 C 242.642 320.847,242.942 322.603,243.210 322.800 C 243.360 322.910,243.721 325.025,244.012 327.500 C 244.303 329.975,244.658 332.000,244.802 332.000 C 244.945 332.000,245.291 334.025,245.572 336.500 C 245.852 338.975,246.221 341.180,246.392 341.400 C 246.563 341.620,246.832 343.060,246.991 344.600 C 247.149 346.140,247.419 347.580,247.591 347.800 C 247.762 348.020,248.127 350.090,248.400 352.400 C 248.673 354.710,249.029 356.780,249.190 357.000 C 249.350 357.220,249.704 359.290,249.976 361.600 C 250.247 363.910,250.616 365.980,250.795 366.200 C 250.974 366.420,251.249 367.995,251.407 369.700 C 251.565 371.405,251.822 372.800,251.978 372.800 C 252.134 372.800,252.491 374.825,252.772 377.300 C 253.052 379.775,253.423 381.980,253.596 382.200 C 253.769 382.420,254.039 383.905,254.196 385.500 C 254.353 387.095,254.612 388.400,254.772 388.400 C 254.931 388.400,255.292 390.425,255.573 392.900 C 255.854 395.375,256.199 397.580,256.339 397.800 C 256.575 398.170,257.417 403.019,258.424 409.800 C 258.653 411.340,258.999 412.960,259.194 413.400 C 259.389 413.840,259.762 416.090,260.023 418.400 C 260.284 420.710,260.633 422.780,260.800 423.000 C 260.967 423.220,261.327 425.290,261.600 427.600 C 261.873 429.910,262.233 431.980,262.399 432.200 C 262.565 432.420,262.826 433.635,262.979 434.900 C 263.252 437.151,264.882 438.286,265.773 436.844 C 265.894 436.649,266.489 436.366,267.096 436.217 C 268.468 435.879,271.753 434.305,271.933 433.900 C 272.007 433.735,272.274 433.600,272.528 433.600 C 273.008 433.600,277.251 431.577,277.600 431.181 C 277.710 431.057,278.385 430.718,279.100 430.429 C 279.815 430.140,280.400 429.781,280.400 429.632 C 280.400 429.483,281.030 429.133,281.800 428.854 C 282.570 428.576,283.200 428.180,283.200 427.974 C 283.200 427.768,283.372 427.600,283.582 427.600 C 283.912 427.600,286.183 426.235,287.400 425.306 C 287.620 425.138,288.610 424.461,289.600 423.801 C 290.590 423.142,291.490 422.509,291.600 422.396 C 291.710 422.282,292.790 421.517,294.000 420.695 C 295.210 419.874,296.740 418.759,297.400 418.218 C 298.060 417.677,299.019 416.911,299.532 416.517 C 300.045 416.123,300.675 415.620,300.932 415.400 C 301.189 415.180,302.120 414.473,303.000 413.830 C 304.786 412.523,305.061 412.293,307.565 410.010 C 308.536 409.124,309.437 408.400,309.567 408.400 C 310.221 408.400,314.800 403.500,314.800 402.800 C 314.800 402.360,314.639 402.000,314.442 402.000 C 314.245 402.000,313.956 400.560,313.800 398.800 C 313.644 397.040,313.385 395.600,313.223 395.600 C 313.062 395.600,312.691 393.530,312.400 391.000 C 312.109 388.470,311.750 386.400,311.604 386.400 C 311.458 386.400,311.109 384.375,310.828 381.900 C 310.548 379.425,310.179 377.220,310.008 377.000 C 309.837 376.780,309.568 375.340,309.409 373.800 C 309.251 372.260,308.982 370.820,308.812 370.600 C 308.642 370.380,308.292 368.400,308.034 366.200 C 307.777 364.000,307.410 361.840,307.220 361.400 C 307.029 360.960,306.582 358.620,306.227 356.200 C 304.927 347.364,304.656 345.796,304.395 345.600 C 304.248 345.490,303.894 343.420,303.607 341.000 C 303.320 338.580,302.951 336.420,302.787 336.200 C 302.623 335.980,302.361 334.495,302.204 332.900 C 302.047 331.305,301.788 330.000,301.628 330.000 C 301.469 330.000,301.109 327.975,300.828 325.500 C 300.548 323.025,300.184 320.820,300.020 320.600 C 299.856 320.380,299.493 318.310,299.212 316.000 C 298.932 313.690,298.562 311.620,298.391 311.400 C 298.220 311.180,297.951 309.605,297.793 307.900 C 297.635 306.195,297.369 304.800,297.201 304.800 C 297.033 304.800,296.672 302.727,296.399 300.194 C 296.126 297.660,295.760 295.499,295.585 295.391 C 295.411 295.283,295.141 293.846,294.987 292.197 C 294.832 290.549,294.579 289.200,294.424 289.200 C 294.268 289.200,293.905 287.175,293.617 284.700 C 293.329 282.225,292.962 280.020,292.800 279.800 C 292.638 279.580,292.271 277.375,291.983 274.900 C 291.695 272.425,291.332 270.400,291.176 270.400 C 291.021 270.400,290.767 269.050,290.613 267.400 C 290.458 265.750,290.193 264.400,290.023 264.400 C 289.854 264.400,289.601 263.170,289.461 261.667 C 289.064 257.392,288.793 256.452,287.875 256.160 C 287.419 256.015,286.216 255.335,285.203 254.648 C 282.413 252.758,281.918 252.454,280.400 251.698 C 279.630 251.314,278.940 250.865,278.867 250.700 C 278.793 250.535,278.503 250.400,278.221 250.400 C 277.939 250.400,277.279 250.065,276.754 249.655 C 276.229 249.245,275.350 248.771,274.800 248.601 C 274.250 248.431,273.710 248.174,273.600 248.030 C 273.323 247.667,268.602 245.600,268.050 245.600 C 267.802 245.600,267.600 245.449,267.600 245.264 C 267.600 245.079,266.610 244.690,265.400 244.400 C 264.190 244.110,263.200 243.735,263.200 243.568 C 263.200 243.401,262.648 243.142,261.973 242.994 C 261.298 242.846,260.268 242.477,259.684 242.173 C 259.099 241.870,257.806 241.502,256.811 241.356 C 255.815 241.209,254.902 240.938,254.782 240.754 C 254.663 240.570,253.178 240.213,251.482 239.961 C 249.787 239.709,248.400 239.363,248.400 239.192 C 248.400 239.021,247.095 238.753,245.500 238.596 C 243.905 238.439,242.420 238.168,242.200 237.994 C 241.886 237.744,231.066 236.800,228.524 236.800 C 228.091 236.800,228.030 237.253,228.239 238.900 M193.900 241.876 C 193.515 241.976,193.200 242.205,193.200 242.385 C 193.200 242.564,192.570 242.829,191.800 242.974 C 191.030 243.118,190.400 243.408,190.400 243.618 C 190.400 243.828,190.097 244.000,189.727 244.000 C 189.048 244.000,183.148 246.865,180.200 248.628 C 179.320 249.154,178.150 249.809,177.600 250.084 C 177.050 250.358,176.456 250.812,176.280 251.092 C 176.104 251.371,175.708 251.600,175.400 251.600 C 175.092 251.600,174.696 251.825,174.520 252.101 C 174.344 252.376,173.750 252.833,173.200 253.116 C 172.650 253.399,171.615 254.119,170.899 254.716 C 170.184 255.312,168.935 256.340,168.125 257.000 C 164.248 260.159,157.867 266.422,157.062 267.860 C 156.876 268.194,156.200 268.966,155.561 269.577 C 154.923 270.187,154.400 270.883,154.400 271.123 C 154.400 271.364,154.156 271.704,153.858 271.880 C 153.561 272.056,153.086 272.639,152.804 273.175 C 152.522 273.711,152.133 274.341,151.938 274.575 C 151.744 274.809,151.224 275.438,150.782 275.974 C 150.340 276.509,149.877 277.351,149.753 277.845 C 149.629 278.338,149.274 278.839,148.964 278.959 C 148.654 279.078,148.400 279.423,148.400 279.726 C 148.400 280.029,148.040 280.693,147.600 281.200 C 147.160 281.707,146.800 282.365,146.800 282.661 C 146.800 282.958,146.620 283.200,146.400 283.200 C 145.907 283.200,145.864 286.269,146.352 286.571 C 146.546 286.690,146.832 288.141,146.987 289.794 C 147.142 291.447,147.399 292.800,147.559 292.800 C 147.719 292.800,148.090 294.960,148.384 297.600 C 148.677 300.240,149.042 302.400,149.194 302.400 C 149.346 302.400,149.701 304.470,149.983 307.000 C 150.265 309.530,150.629 311.600,150.793 311.600 C 150.956 311.600,151.216 312.990,151.370 314.689 C 151.524 316.388,151.796 317.963,151.976 318.189 C 152.156 318.415,152.527 320.490,152.800 322.800 C 153.073 325.110,153.438 327.180,153.609 327.400 C 153.781 327.620,154.051 329.060,154.209 330.600 C 154.368 332.140,154.631 333.580,154.795 333.800 C 154.960 334.020,155.329 336.225,155.617 338.700 C 155.905 341.175,156.258 343.200,156.400 343.200 C 156.542 343.200,156.895 345.184,157.183 347.610 C 157.472 350.035,157.845 352.104,158.012 352.207 C 158.179 352.311,158.444 353.837,158.600 355.598 C 158.756 357.359,159.013 358.800,159.173 358.800 C 159.332 358.800,159.691 360.825,159.972 363.300 C 160.252 365.775,160.621 367.980,160.792 368.200 C 160.963 368.420,161.327 370.490,161.600 372.800 C 161.873 375.110,162.237 377.180,162.409 377.400 C 162.580 377.620,162.849 379.195,163.007 380.900 C 163.165 382.605,163.421 384.000,163.576 384.000 C 163.732 384.000,164.095 386.025,164.383 388.500 C 164.671 390.975,165.047 393.180,165.219 393.400 C 165.391 393.620,165.660 395.105,165.818 396.700 C 165.975 398.295,166.231 399.600,166.387 399.600 C 166.543 399.600,166.909 401.670,167.200 404.200 C 167.491 406.730,167.850 408.800,167.996 408.800 C 168.142 408.800,168.491 410.825,168.772 413.300 C 169.052 415.775,169.421 417.980,169.592 418.200 C 169.763 418.420,170.029 419.816,170.184 421.303 C 170.462 423.985,171.330 426.400,172.016 426.400 C 172.212 426.400,172.925 426.940,173.600 427.600 C 174.275 428.260,174.974 428.800,175.153 428.800 C 175.331 428.800,175.893 429.160,176.400 429.600 C 176.907 430.040,177.552 430.400,177.833 430.400 C 178.113 430.400,178.628 430.685,178.977 431.034 C 179.758 431.815,188.717 436.400,189.462 436.400 C 189.758 436.400,190.000 436.551,190.000 436.736 C 190.000 436.921,190.990 437.310,192.200 437.600 C 193.410 437.890,194.400 438.263,194.400 438.429 C 194.400 438.594,195.120 438.851,196.000 439.000 C 196.880 439.149,197.600 439.406,197.600 439.571 C 197.600 439.737,198.905 440.102,200.500 440.382 C 202.095 440.663,203.580 441.029,203.800 441.194 C 204.279 441.555,209.876 442.400,211.783 442.400 C 212.526 442.400,213.194 442.582,213.268 442.805 C 213.351 443.052,216.901 443.312,222.348 443.470 L 231.294 443.730 231.002 441.165 C 230.842 439.754,230.577 438.420,230.414 438.200 C 230.251 437.980,229.896 435.910,229.624 433.600 C 229.353 431.290,228.984 429.220,228.805 429.000 C 228.626 428.780,228.351 427.205,228.193 425.500 C 228.035 423.795,227.776 422.400,227.618 422.400 C 227.459 422.400,227.099 420.327,226.816 417.794 C 226.534 415.260,226.160 413.099,225.985 412.991 C 225.811 412.883,225.541 411.446,225.387 409.797 C 225.232 408.149,224.978 406.800,224.822 406.800 C 224.666 406.800,224.309 404.775,224.028 402.300 C 223.748 399.825,223.384 397.620,223.220 397.400 C 223.056 397.180,222.693 395.110,222.412 392.800 C 222.132 390.490,221.766 388.420,221.600 388.200 C 221.433 387.980,221.168 386.540,221.009 385.000 C 220.851 383.460,220.584 382.020,220.417 381.800 C 220.250 381.580,219.887 379.420,219.612 377.000 C 219.336 374.580,218.972 372.420,218.804 372.200 C 218.635 371.980,218.273 369.910,218.000 367.600 C 217.727 365.290,217.362 363.220,217.191 363.000 C 217.019 362.780,216.749 361.340,216.591 359.800 C 216.432 358.260,216.172 356.820,216.013 356.600 C 215.853 356.380,215.493 354.310,215.212 352.000 C 214.932 349.690,214.564 347.620,214.396 347.400 C 214.227 347.180,213.961 345.695,213.804 344.100 C 213.647 342.505,213.391 341.200,213.234 341.200 C 213.078 341.200,212.710 339.040,212.416 336.400 C 212.123 333.760,211.758 331.600,211.606 331.600 C 211.454 331.600,211.099 329.530,210.817 327.000 C 210.535 324.470,210.167 322.400,209.999 322.400 C 209.831 322.400,209.565 321.005,209.407 319.300 C 209.249 317.595,208.981 316.020,208.812 315.800 C 208.642 315.580,208.292 313.600,208.034 311.400 C 207.777 309.200,207.404 307.040,207.206 306.600 C 207.008 306.160,206.558 303.820,206.207 301.400 C 204.916 292.511,204.656 290.996,204.390 290.800 C 204.240 290.690,203.879 288.575,203.588 286.100 C 203.297 283.625,202.929 281.600,202.771 281.600 C 202.613 281.600,202.356 280.160,202.200 278.400 C 202.044 276.640,201.785 275.200,201.623 275.200 C 201.462 275.200,201.099 273.130,200.817 270.600 C 200.535 268.070,200.178 266.000,200.024 266.000 C 199.870 266.000,199.521 264.077,199.247 261.728 C 198.974 259.378,198.601 257.173,198.417 256.828 C 198.234 256.482,197.954 254.805,197.795 253.100 C 197.636 251.395,197.381 250.000,197.228 250.000 C 197.076 250.000,196.720 248.110,196.437 245.800 C 195.899 241.394,195.877 241.359,193.900 241.876 M342.094 571.419 C 341.608 571.759,340.623 572.239,339.905 572.484 C 339.187 572.730,338.510 573.037,338.400 573.166 C 338.057 573.569,334.654 575.131,333.500 575.416 C 332.895 575.565,332.400 575.825,332.400 575.993 C 332.400 576.162,331.860 576.408,331.200 576.540 C 330.540 576.672,329.200 577.144,328.222 577.590 C 327.244 578.035,326.164 578.400,325.822 578.400 C 325.480 578.400,325.200 578.567,325.200 578.771 C 325.200 578.976,324.210 579.364,323.000 579.635 C 321.790 579.906,320.800 580.266,320.800 580.435 C 320.800 580.604,319.810 580.964,318.600 581.235 C 317.390 581.506,316.400 581.863,316.400 582.028 C 316.400 582.194,315.680 582.451,314.800 582.600 C 313.920 582.749,313.200 583.001,313.200 583.162 C 313.200 583.322,312.030 583.686,310.600 583.970 C 309.170 584.254,308.000 584.636,308.000 584.819 C 308.000 585.002,307.190 585.272,306.200 585.421 C 305.210 585.569,304.400 585.819,304.400 585.976 C 304.400 586.133,303.189 586.485,301.709 586.758 C 300.229 587.030,298.834 587.395,298.609 587.567 C 298.384 587.740,296.940 588.083,295.400 588.329 C 290.430 589.125,289.154 591.218,291.219 595.184 C 291.395 595.523,291.828 597.780,292.180 600.200 C 293.434 608.813,293.742 610.603,294.006 610.800 C 294.153 610.910,294.502 612.980,294.782 615.400 C 295.061 617.820,295.422 619.980,295.584 620.200 C 295.745 620.420,296.107 622.490,296.388 624.800 C 296.668 627.110,297.034 629.180,297.200 629.400 C 297.367 629.620,297.632 631.060,297.791 632.600 C 297.949 634.140,298.217 635.580,298.386 635.800 C 298.555 636.020,298.929 638.225,299.217 640.700 C 299.505 643.175,299.866 645.200,300.019 645.200 C 300.172 645.200,300.425 646.505,300.582 648.100 C 300.740 649.695,301.009 651.180,301.181 651.400 C 301.353 651.620,301.722 653.830,302.001 656.310 C 302.281 658.791,302.665 660.916,302.855 661.034 C 303.045 661.151,303.200 661.777,303.200 662.424 C 303.200 663.587,303.838 663.962,304.620 663.258 C 304.829 663.070,306.890 662.688,309.200 662.409 C 311.510 662.130,313.580 661.764,313.800 661.596 C 314.020 661.427,315.550 661.158,317.200 660.999 C 318.850 660.840,320.380 660.595,320.600 660.455 C 321.003 660.198,326.230 659.307,334.000 658.169 C 336.310 657.831,338.560 657.394,339.000 657.199 C 339.440 657.004,340.970 656.724,342.400 656.578 C 343.830 656.431,345.180 656.175,345.400 656.009 C 345.620 655.842,347.825 655.471,350.300 655.183 C 352.775 654.895,354.800 654.511,354.800 654.329 C 354.800 654.148,355.415 654.000,356.167 654.000 C 358.760 654.000,359.337 652.682,358.091 649.600 C 357.824 648.941,356.639 642.034,355.928 637.000 C 355.680 635.240,355.351 633.710,355.197 633.600 C 355.043 633.490,354.679 631.375,354.388 628.900 C 354.097 626.425,353.742 624.400,353.600 624.400 C 353.458 624.400,353.105 622.375,352.817 619.900 C 352.529 617.425,352.160 615.220,351.995 615.000 C 351.831 614.780,351.568 613.340,351.409 611.800 C 351.251 610.260,350.981 608.820,350.809 608.600 C 350.638 608.380,350.273 606.310,350.000 604.000 C 349.727 601.690,349.363 599.620,349.191 599.400 C 349.020 599.180,348.751 597.605,348.593 595.900 C 348.435 594.195,348.179 592.800,348.024 592.800 C 347.868 592.800,347.503 590.775,347.212 588.300 C 346.921 585.825,346.564 583.710,346.419 583.600 C 346.189 583.426,345.209 577.632,344.541 572.500 C 344.296 570.621,343.644 570.333,342.094 571.419 M251.600 595.479 C 242.886 596.381,219.876 596.752,207.100 596.196 L 201.600 595.957 201.600 597.251 C 201.600 599.271,202.473 605.755,202.805 606.200 C 202.969 606.420,203.327 608.490,203.600 610.800 C 203.873 613.110,204.237 615.180,204.409 615.400 C 204.580 615.620,204.849 617.195,205.007 618.900 C 205.165 620.605,205.421 622.000,205.576 622.000 C 205.732 622.000,206.095 624.025,206.383 626.500 C 206.671 628.975,207.040 631.180,207.205 631.400 C 207.369 631.620,207.727 633.690,208.000 636.000 C 208.273 638.310,208.635 640.380,208.804 640.600 C 208.973 640.820,209.239 642.305,209.396 643.900 C 209.553 645.495,209.812 646.800,209.972 646.800 C 210.131 646.800,210.491 648.825,210.772 651.300 C 211.052 653.775,211.421 655.980,211.592 656.200 C 211.763 656.420,212.032 657.860,212.191 659.400 C 212.349 660.940,212.621 662.380,212.794 662.600 C 212.968 662.820,213.337 664.941,213.615 667.313 C 213.892 669.686,214.273 671.721,214.460 671.837 C 214.647 671.953,214.800 672.597,214.800 673.268 C 214.800 674.425,214.868 674.477,216.100 674.266 C 216.815 674.143,218.480 673.921,219.800 673.772 C 221.120 673.623,222.380 673.359,222.600 673.185 C 222.820 673.011,224.305 672.740,225.900 672.582 C 227.495 672.425,228.800 672.171,228.800 672.017 C 228.800 671.864,230.825 671.508,233.300 671.227 C 235.775 670.946,237.980 670.601,238.200 670.461 C 238.570 670.225,243.419 669.383,250.200 668.376 C 251.740 668.147,253.360 667.799,253.800 667.603 C 254.240 667.406,256.535 667.029,258.900 666.764 C 261.265 666.500,263.200 666.151,263.200 665.989 C 263.200 665.827,264.577 665.565,266.259 665.407 C 267.942 665.250,269.535 664.918,269.800 664.671 C 270.295 664.208,270.142 660.787,269.608 660.400 C 269.457 660.290,269.107 658.315,268.832 656.011 C 268.558 653.707,268.183 651.541,267.999 651.198 C 267.816 650.856,267.538 649.276,267.381 647.688 C 267.225 646.099,266.972 644.800,266.819 644.800 C 266.666 644.800,266.305 642.775,266.017 640.300 C 265.729 637.825,265.384 635.620,265.250 635.400 C 265.024 635.029,264.164 630.054,263.176 623.400 C 262.947 621.860,262.601 620.240,262.406 619.800 C 262.211 619.360,261.838 617.110,261.577 614.800 C 261.316 612.490,260.960 610.420,260.786 610.200 C 260.611 609.980,260.340 608.495,260.182 606.900 C 260.025 605.305,259.772 604.000,259.619 604.000 C 259.466 604.000,259.106 602.020,258.818 599.600 L 258.295 595.200 255.647 595.267 C 254.191 595.304,252.370 595.400,251.600 595.479 " stroke="none" fill="#ecb434" fill-rule="evenodd"></path><path id="path1" d="M215.046 115.925 C 214.928 116.117,211.629 116.404,207.715 116.564 C 203.802 116.723,199.340 117.017,197.800 117.217 C 196.260 117.417,193.290 117.775,191.200 118.013 C 189.110 118.250,187.040 118.601,186.600 118.792 C 186.160 118.984,184.000 119.358,181.800 119.623 C 179.600 119.889,177.620 120.240,177.400 120.403 C 177.180 120.565,175.470 120.918,173.600 121.185 C 171.730 121.452,170.020 121.812,169.800 121.985 C 169.580 122.158,168.519 122.427,167.441 122.583 C 166.364 122.739,165.194 123.030,164.841 123.230 C 164.489 123.430,163.030 123.876,161.600 124.221 C 156.520 125.446,155.398 125.760,155.200 126.011 C 155.090 126.151,153.875 126.500,152.500 126.787 C 151.125 127.074,150.000 127.440,150.000 127.600 C 150.000 127.760,148.920 128.120,147.600 128.400 C 146.280 128.680,145.200 129.045,145.200 129.210 C 145.200 129.376,144.570 129.629,143.800 129.774 C 143.030 129.918,142.400 130.179,142.400 130.354 C 142.400 130.529,141.410 130.894,140.200 131.165 C 138.990 131.436,138.000 131.802,138.000 131.979 C 138.000 132.155,137.460 132.408,136.800 132.540 C 136.140 132.672,134.800 133.144,133.822 133.590 C 132.844 134.035,131.854 134.400,131.622 134.400 C 131.390 134.400,131.200 134.580,131.200 134.800 C 131.200 135.020,130.899 135.200,130.530 135.200 C 129.715 135.200,124.623 137.591,115.400 142.304 C 114.300 142.866,113.308 143.463,113.196 143.631 C 113.084 143.799,112.484 144.064,111.864 144.220 C 111.243 144.376,110.645 144.739,110.534 145.027 C 110.424 145.315,109.808 145.666,109.167 145.807 C 108.525 145.948,108.000 146.207,108.000 146.383 C 108.000 146.559,107.415 146.942,106.700 147.235 C 105.985 147.527,105.181 147.954,104.914 148.183 C 103.709 149.217,103.321 149.462,102.100 149.963 C 101.385 150.257,100.800 150.622,100.800 150.774 C 100.800 150.927,100.215 151.354,99.500 151.723 C 97.523 152.745,96.101 153.696,94.811 154.861 C 94.408 155.224,93.742 155.628,93.331 155.758 C 92.919 155.889,91.991 156.537,91.267 157.198 C 90.543 157.859,89.827 158.400,89.675 158.400 C 89.524 158.401,88.922 158.806,88.337 159.300 C 87.753 159.795,86.872 160.470,86.380 160.800 C 85.888 161.130,85.035 161.805,84.485 162.300 C 83.934 162.795,83.374 163.204,83.242 163.209 C 83.109 163.214,82.280 163.843,81.400 164.606 C 80.520 165.369,79.100 166.580,78.246 167.297 C 77.391 168.013,76.397 168.870,76.037 169.200 C 75.677 169.530,74.315 170.700,73.010 171.800 C 70.098 174.256,55.600 188.774,55.600 189.235 C 55.600 189.418,54.880 190.234,54.000 191.048 C 53.120 191.862,52.400 192.674,52.400 192.851 C 52.400 193.028,51.815 193.793,51.100 194.551 C 50.385 195.309,49.620 196.170,49.400 196.464 C 49.179 196.759,48.497 197.630,47.883 198.400 C 47.269 199.170,46.496 200.160,46.166 200.600 C 45.836 201.040,45.124 201.940,44.583 202.600 C 44.043 203.260,43.601 204.025,43.600 204.300 C 43.600 204.575,43.444 204.800,43.254 204.800 C 43.064 204.800,42.390 205.565,41.756 206.500 C 41.121 207.435,40.512 208.290,40.401 208.400 C 39.792 209.006,38.400 211.229,38.400 211.596 C 38.400 211.832,38.146 212.122,37.837 212.241 C 37.527 212.360,37.055 212.985,36.788 213.629 C 36.521 214.273,36.148 214.800,35.959 214.800 C 35.770 214.800,35.502 215.250,35.364 215.800 C 35.226 216.350,34.955 216.800,34.762 216.800 C 34.569 216.800,34.139 217.385,33.806 218.100 C 33.474 218.815,32.843 219.940,32.405 220.600 C 31.967 221.260,31.384 222.250,31.109 222.800 C 30.834 223.350,30.383 224.038,30.105 224.328 C 29.828 224.618,29.491 225.293,29.357 225.828 C 29.223 226.363,28.972 226.800,28.800 226.800 C 28.628 226.800,28.374 227.250,28.236 227.800 C 28.098 228.350,27.822 228.800,27.623 228.800 C 27.425 228.800,27.054 229.430,26.800 230.200 C 26.546 230.970,26.172 231.600,25.969 231.600 C 25.766 231.600,25.600 231.822,25.600 232.094 C 25.600 232.622,23.574 236.865,23.162 237.200 C 23.027 237.310,22.696 238.075,22.427 238.900 C 22.158 239.725,21.795 240.400,21.621 240.400 C 21.447 240.400,21.077 241.210,20.800 242.200 C 20.523 243.190,20.139 244.000,19.948 244.000 C 19.757 244.000,19.600 244.320,19.600 244.711 C 19.600 245.102,19.350 245.779,19.045 246.214 C 18.740 246.650,18.261 247.770,17.982 248.703 C 17.702 249.637,17.330 250.400,17.155 250.400 C 16.980 250.400,16.718 251.030,16.574 251.800 C 16.429 252.570,16.164 253.200,15.984 253.200 C 15.804 253.200,15.436 254.190,15.165 255.400 C 14.894 256.610,14.534 257.600,14.365 257.600 C 14.196 257.600,13.836 258.590,13.565 259.800 C 13.294 261.010,12.929 262.000,12.754 262.000 C 12.579 262.000,12.315 262.675,12.166 263.500 C 12.017 264.325,11.763 265.180,11.600 265.400 C 11.438 265.620,11.075 266.790,10.794 268.000 C 10.514 269.210,10.160 270.290,10.008 270.400 C 9.700 270.623,9.057 272.805,8.063 277.000 C 7.699 278.540,7.261 280.014,7.091 280.277 C 6.921 280.539,6.565 282.114,6.301 283.777 C 6.036 285.439,5.698 286.800,5.549 286.800 C 5.400 286.800,5.149 287.925,4.991 289.300 C 4.833 290.675,4.561 291.891,4.387 292.002 C 4.212 292.113,3.844 294.093,3.569 296.402 C 3.293 298.711,2.936 300.690,2.776 300.800 C 2.615 300.910,2.269 303.430,2.007 306.400 C 1.745 309.370,1.371 312.160,1.176 312.600 C -0.351 316.047,-0.337 365.935,1.193 369.400 C 1.387 369.840,1.760 372.585,2.023 375.500 C 2.285 378.415,2.624 380.800,2.776 380.800 C 2.928 380.800,3.267 382.628,3.530 384.863 C 3.792 387.097,4.161 389.122,4.350 389.363 C 4.539 389.603,4.819 390.786,4.972 391.990 C 5.126 393.195,5.393 394.365,5.566 394.590 C 5.739 394.816,6.095 396.341,6.357 397.979 C 6.619 399.618,6.990 401.148,7.182 401.379 C 7.373 401.611,7.741 402.970,8.000 404.400 C 8.259 405.830,8.614 407.180,8.790 407.400 C 8.966 407.620,9.236 408.565,9.390 409.500 C 9.544 410.435,9.810 411.200,9.981 411.200 C 10.151 411.200,10.520 412.280,10.800 413.600 C 11.080 414.920,11.444 416.000,11.609 416.000 C 11.774 416.000,12.031 416.810,12.179 417.800 C 12.328 418.790,12.598 419.600,12.780 419.600 C 12.962 419.600,13.222 420.185,13.358 420.900 C 13.493 421.615,13.838 422.650,14.124 423.200 C 14.410 423.750,14.884 425.060,15.177 426.110 C 15.470 427.161,15.865 428.117,16.055 428.234 C 16.245 428.351,16.400 428.784,16.400 429.195 C 16.400 429.606,16.662 430.205,16.983 430.526 C 17.303 430.846,17.775 431.939,18.030 432.954 C 18.286 433.969,18.639 434.800,18.816 434.800 C 18.992 434.800,19.255 435.340,19.400 436.000 C 19.545 436.660,19.792 437.200,19.949 437.200 C 20.106 437.200,20.451 438.010,20.716 439.000 C 20.980 439.990,21.378 440.800,21.598 440.800 C 21.819 440.800,22.000 441.022,22.000 441.294 C 22.000 441.822,24.026 446.065,24.438 446.400 C 24.573 446.510,24.904 447.275,25.173 448.100 C 25.442 448.925,25.792 449.600,25.951 449.600 C 26.109 449.600,26.467 450.230,26.746 451.000 C 27.024 451.770,27.406 452.400,27.594 452.400 C 27.782 452.400,28.055 452.940,28.200 453.600 C 28.345 454.260,28.607 454.800,28.783 454.800 C 28.959 454.800,29.340 455.385,29.629 456.100 C 29.918 456.815,30.270 457.490,30.412 457.600 C 30.553 457.710,31.185 458.700,31.815 459.800 C 32.446 460.900,33.061 461.890,33.181 462.000 C 33.302 462.110,33.671 462.740,34.001 463.400 C 34.330 464.060,34.780 464.819,35.000 465.086 C 35.220 465.353,35.625 465.841,35.900 466.169 C 36.175 466.498,36.400 466.879,36.400 467.018 C 36.400 467.361,38.849 470.871,40.407 472.761 C 40.843 473.290,41.200 473.847,41.200 474.000 C 41.200 474.153,41.515 474.656,41.900 475.119 C 43.084 476.542,43.994 477.717,45.538 479.821 C 46.998 481.811,47.613 482.588,48.800 483.942 C 49.130 484.318,49.907 485.300,50.527 486.122 C 51.147 486.945,52.047 488.040,52.527 488.554 C 53.007 489.069,54.570 490.804,56.000 492.408 C 59.381 496.203,68.702 505.537,72.169 508.600 C 73.662 509.920,75.721 511.764,76.742 512.698 C 77.764 513.632,78.709 514.397,78.842 514.398 C 78.974 514.399,79.553 514.805,80.127 515.300 C 84.244 518.851,88.308 522.000,88.773 522.000 C 89.008 522.000,89.200 522.158,89.200 522.351 C 89.200 522.545,89.727 522.921,90.371 523.188 C 91.015 523.455,91.640 523.927,91.759 524.237 C 91.878 524.546,92.251 524.800,92.587 524.800 C 92.924 524.800,93.200 524.984,93.200 525.210 C 93.200 525.435,93.650 525.791,94.200 526.000 C 94.750 526.209,95.200 526.521,95.200 526.692 C 95.200 526.864,95.785 527.264,96.500 527.580 C 97.215 527.897,97.980 528.304,98.200 528.485 C 98.420 528.666,99.033 529.171,99.561 529.607 C 100.090 530.043,100.677 530.400,100.865 530.400 C 101.054 530.400,102.072 531.007,103.127 531.748 C 104.182 532.490,105.440 533.222,105.923 533.375 C 106.405 533.529,106.800 533.808,106.800 533.996 C 106.800 534.184,107.430 534.546,108.200 534.800 C 108.970 535.054,109.600 535.428,109.600 535.631 C 109.600 535.834,109.846 536.000,110.146 536.000 C 110.446 536.000,111.136 536.349,111.678 536.775 C 112.220 537.202,113.144 537.671,113.732 537.819 C 114.319 537.966,114.800 538.240,114.800 538.427 C 114.800 538.615,115.520 538.984,116.400 539.247 C 117.280 539.511,118.000 539.864,118.000 540.032 C 118.000 540.199,118.540 540.455,119.200 540.600 C 119.860 540.745,120.400 541.015,120.400 541.201 C 120.400 541.386,121.075 541.758,121.900 542.027 C 122.725 542.296,123.490 542.625,123.600 542.758 C 123.934 543.163,127.328 544.727,128.500 545.016 C 129.105 545.165,129.600 545.419,129.600 545.580 C 129.600 545.741,130.363 546.102,131.297 546.382 C 132.230 546.661,133.350 547.140,133.786 547.445 C 134.221 547.750,134.988 548.000,135.489 548.000 C 135.990 548.000,136.400 548.160,136.400 548.357 C 136.400 548.553,136.889 548.836,137.486 548.986 C 138.083 549.136,139.334 549.605,140.264 550.029 C 141.195 550.453,142.281 550.806,142.678 550.814 C 143.075 550.821,144.120 551.175,145.000 551.600 C 145.880 552.025,146.904 552.379,147.276 552.386 C 147.648 552.394,148.048 552.554,148.165 552.743 C 148.281 552.931,149.462 553.316,150.788 553.598 C 152.115 553.879,153.200 554.236,153.200 554.391 C 153.200 554.545,154.460 554.897,156.000 555.172 C 157.540 555.447,158.800 555.813,158.800 555.985 C 158.800 556.156,159.693 556.415,160.784 556.560 C 161.875 556.705,162.864 556.979,162.981 557.170 C 163.099 557.360,164.727 557.744,166.598 558.023 C 168.469 558.301,170.000 558.662,170.000 558.825 C 170.000 558.988,171.080 559.247,172.401 559.400 C 173.721 559.553,174.889 559.820,174.996 559.994 C 175.103 560.167,177.038 560.523,179.295 560.785 C 181.553 561.047,183.688 561.412,184.041 561.597 C 184.394 561.782,187.184 562.146,190.241 562.406 C 193.298 562.666,196.160 563.039,196.600 563.236 C 200.080 564.790,248.371 564.787,251.800 563.233 C 252.240 563.033,255.525 562.650,259.100 562.382 C 262.675 562.114,265.600 561.771,265.600 561.621 C 265.600 561.472,267.761 561.117,270.402 560.833 C 273.044 560.549,275.295 560.169,275.406 559.990 C 275.518 559.810,276.777 559.538,278.204 559.385 C 279.632 559.232,280.800 558.982,280.800 558.830 C 280.800 558.678,282.420 558.324,284.400 558.043 C 286.380 557.763,288.000 557.390,288.000 557.213 C 288.000 557.037,288.990 556.768,290.200 556.617 C 291.410 556.466,292.400 556.192,292.400 556.007 C 292.400 555.823,293.660 555.460,295.200 555.200 C 296.740 554.940,298.000 554.597,298.000 554.437 C 298.000 554.277,299.172 553.914,300.604 553.629 C 302.036 553.345,303.297 552.967,303.406 552.791 C 303.515 552.614,304.323 552.348,305.202 552.200 C 306.081 552.051,306.800 551.794,306.800 551.629 C 306.800 551.463,307.790 551.090,309.000 550.800 C 310.210 550.510,311.200 550.143,311.200 549.986 C 311.200 549.829,311.754 549.589,312.432 549.454 C 313.109 549.318,314.234 548.949,314.932 548.633 C 318.469 547.029,319.924 546.434,320.914 546.186 C 321.511 546.036,322.000 545.792,322.000 545.644 C 322.000 545.496,322.810 545.135,323.800 544.843 C 324.790 544.551,325.600 544.166,325.600 543.988 C 325.600 543.809,326.140 543.545,326.800 543.400 C 327.460 543.255,328.000 543.007,328.000 542.849 C 328.000 542.690,328.675 542.319,329.500 542.024 C 330.325 541.729,331.090 541.376,331.200 541.240 C 331.533 540.827,335.776 538.800,336.306 538.800 C 336.578 538.800,336.801 538.665,336.801 538.500 C 336.802 538.335,337.837 537.660,339.101 537.000 C 340.366 536.340,341.490 535.698,341.600 535.574 C 341.710 535.449,342.845 534.755,344.123 534.031 C 345.400 533.307,347.380 532.099,348.523 531.345 C 349.665 530.591,350.937 529.755,351.349 529.487 C 351.761 529.219,352.333 528.775,352.620 528.500 C 352.908 528.225,353.274 528.000,353.434 528.000 C 353.594 528.000,354.314 527.550,355.036 527.000 C 355.757 526.450,356.499 526.000,356.684 526.000 C 356.870 526.000,357.306 525.685,357.653 525.300 C 358.284 524.600,358.994 524.053,362.188 521.800 C 364.993 519.822,366.981 518.235,367.320 517.702 C 367.496 517.426,367.817 517.200,368.033 517.200 C 368.250 517.200,368.955 516.660,369.600 516.000 C 370.245 515.340,370.894 514.800,371.042 514.800 C 371.190 514.800,372.141 514.061,373.155 513.158 C 374.170 512.254,376.058 510.589,377.351 509.458 C 378.644 508.326,380.741 506.410,382.011 505.200 C 383.282 503.990,385.194 502.246,386.261 501.325 C 387.327 500.403,389.460 498.370,391.000 496.807 C 392.540 495.244,394.651 493.102,395.692 492.048 C 398.238 489.467,400.000 487.211,400.000 486.530 C 400.000 486.222,395.958 481.882,391.017 476.885 C 368.932 454.549,339.269 424.800,339.082 424.800 C 338.862 424.800,336.371 427.032,333.167 430.100 C 332.076 431.145,331.052 432.001,330.892 432.003 C 330.731 432.005,329.659 432.860,328.509 433.903 C 327.359 434.946,325.765 436.340,324.967 437.000 C 324.168 437.660,323.000 438.650,322.370 439.200 C 321.740 439.750,320.139 441.006,318.812 441.990 C 317.485 442.975,316.400 443.920,316.400 444.090 C 316.400 444.261,316.175 444.400,315.900 444.400 C 315.625 444.401,314.922 444.806,314.337 445.300 C 313.753 445.795,312.868 446.470,312.371 446.800 C 311.874 447.130,311.138 447.715,310.734 448.100 C 310.330 448.485,309.833 448.800,309.629 448.800 C 309.424 448.800,309.019 449.029,308.729 449.310 C 308.438 449.590,307.300 450.395,306.200 451.099 C 305.100 451.803,304.020 452.528,303.800 452.710 C 303.580 452.892,303.085 453.161,302.700 453.308 C 302.315 453.455,302.000 453.727,302.000 453.913 C 302.000 454.099,301.370 454.498,300.600 454.800 C 299.830 455.102,299.200 455.462,299.200 455.600 C 299.200 455.738,298.570 456.098,297.800 456.400 C 297.030 456.702,296.400 457.076,296.400 457.231 C 296.400 457.386,295.950 457.626,295.400 457.764 C 294.850 457.902,294.400 458.178,294.400 458.377 C 294.400 458.575,293.770 458.946,293.000 459.200 C 292.230 459.454,291.600 459.814,291.600 459.999 C 291.600 460.185,291.060 460.455,290.400 460.600 C 289.740 460.745,289.200 461.000,289.200 461.168 C 289.200 461.335,288.480 461.710,287.600 462.000 C 286.720 462.290,286.000 462.679,286.000 462.864 C 286.000 463.049,285.685 463.202,285.300 463.204 C 284.915 463.206,283.700 463.650,282.600 464.191 C 281.500 464.732,280.375 465.181,280.100 465.187 C 279.825 465.194,279.600 465.362,279.600 465.560 C 279.600 465.758,278.700 466.136,277.600 466.400 C 276.500 466.664,275.600 467.013,275.600 467.176 C 275.600 467.339,274.565 467.701,273.300 467.981 C 272.035 468.260,270.820 468.633,270.600 468.809 C 270.380 468.985,269.525 469.255,268.700 469.409 C 267.875 469.563,267.200 469.824,267.200 469.990 C 267.200 470.155,265.853 470.508,264.206 470.773 C 262.560 471.039,261.117 471.411,261.000 471.600 C 260.883 471.789,259.755 472.069,258.494 472.221 C 257.232 472.374,256.020 472.637,255.800 472.805 C 255.580 472.974,253.420 473.331,251.000 473.599 C 248.580 473.866,246.240 474.241,245.800 474.432 C 242.656 475.794,208.155 475.802,207.202 474.442 C 207.091 474.283,205.020 473.918,202.600 473.629 C 200.180 473.341,198.107 472.958,197.992 472.778 C 197.878 472.599,196.843 472.327,195.692 472.175 C 194.542 472.022,193.600 471.769,193.600 471.613 C 193.600 471.456,192.340 471.103,190.800 470.828 C 189.260 470.553,188.000 470.184,188.000 470.008 C 188.000 469.833,187.378 469.572,186.617 469.430 C 185.856 469.287,184.731 468.908,184.117 468.588 C 183.503 468.267,182.765 468.004,182.478 468.002 C 182.191 468.001,181.195 467.653,180.264 467.229 C 179.334 466.805,178.083 466.336,177.486 466.186 C 176.889 466.036,176.400 465.773,176.400 465.601 C 176.400 465.429,175.770 465.171,175.000 465.026 C 174.230 464.882,173.600 464.599,173.600 464.398 C 173.600 464.197,172.880 463.816,172.000 463.553 C 171.120 463.289,170.400 462.951,170.400 462.801 C 170.400 462.651,169.680 462.290,168.800 462.000 C 167.920 461.710,167.200 461.362,167.200 461.228 C 167.200 461.093,166.348 460.537,165.307 459.992 C 164.266 459.446,162.558 458.415,161.511 457.700 C 160.465 456.985,159.518 456.400,159.409 456.400 C 159.208 456.400,152.626 451.798,151.710 451.018 C 151.441 450.788,150.746 450.240,150.166 449.800 C 149.586 449.360,148.532 448.460,147.823 447.799 C 147.115 447.139,145.920 446.128,145.168 445.552 C 143.367 444.176,135.779 436.580,134.446 434.820 C 133.870 434.061,132.950 432.944,132.400 432.338 C 131.850 431.732,131.085 430.823,130.700 430.318 C 128.287 427.152,126.521 424.783,126.000 424.013 C 125.670 423.525,125.090 422.761,124.712 422.315 C 124.333 421.870,123.916 421.166,123.785 420.752 C 123.654 420.339,123.378 420.000,123.173 420.000 C 122.968 420.000,122.800 419.816,122.800 419.591 C 122.800 419.188,120.842 415.987,120.358 415.600 C 120.220 415.490,119.982 414.996,119.828 414.502 C 119.674 414.009,119.334 413.379,119.074 413.102 C 118.373 412.360,112.466 400.381,112.169 399.100 C 112.028 398.495,111.775 398.000,111.607 398.000 C 111.438 398.000,111.192 397.460,111.060 396.800 C 110.928 396.140,110.456 394.800,110.010 393.822 C 109.565 392.844,109.200 391.764,109.200 391.422 C 109.200 391.080,109.049 390.800,108.864 390.800 C 108.679 390.800,108.299 389.765,108.019 388.500 C 107.740 387.235,107.368 386.020,107.193 385.800 C 107.018 385.580,106.655 384.275,106.386 382.900 C 106.116 381.525,105.760 380.400,105.594 380.400 C 105.428 380.400,105.168 379.410,105.017 378.200 C 104.866 376.990,104.601 376.000,104.428 376.000 C 104.255 376.000,103.889 374.335,103.614 372.300 C 103.339 370.265,102.971 368.420,102.797 368.200 C 102.622 367.980,102.350 366.360,102.192 364.600 C 102.034 362.840,101.765 361.220,101.595 361.000 C 100.147 359.125,100.150 320.054,101.599 318.200 C 101.771 317.980,102.041 316.450,102.200 314.800 C 102.359 313.150,102.626 311.620,102.794 311.400 C 102.962 311.180,103.315 309.491,103.579 307.647 C 103.843 305.803,104.219 304.003,104.413 303.647 C 104.608 303.291,104.942 302.190,105.154 301.200 C 105.796 298.212,106.810 294.672,107.388 293.400 C 107.688 292.740,108.059 291.525,108.211 290.700 C 108.364 289.875,108.629 289.200,108.800 289.200 C 108.971 289.200,109.234 288.544,109.385 287.742 C 109.535 286.939,109.897 285.904,110.190 285.442 C 110.482 284.979,110.843 284.015,110.993 283.300 C 111.142 282.585,111.406 282.000,111.580 282.000 C 111.754 282.000,112.131 281.145,112.418 280.100 C 112.706 279.055,113.046 278.110,113.174 278.000 C 113.585 277.648,115.600 273.407,115.600 272.894 C 115.600 272.622,115.762 272.400,115.961 272.400 C 116.159 272.400,116.513 271.905,116.747 271.300 C 116.981 270.695,117.898 268.940,118.784 267.400 C 119.670 265.860,120.618 264.150,120.889 263.600 C 121.161 263.050,121.612 262.456,121.892 262.280 C 122.171 262.104,122.400 261.777,122.400 261.553 C 122.400 261.330,122.850 260.557,123.400 259.836 C 123.950 259.114,124.400 258.336,124.400 258.105 C 124.400 257.874,124.670 257.582,125.000 257.455 C 125.330 257.329,125.600 256.949,125.600 256.613 C 125.600 256.276,125.750 256.000,125.932 256.000 C 126.115 256.000,126.520 255.516,126.832 254.925 C 127.145 254.333,127.760 253.464,128.200 252.992 C 128.640 252.521,129.450 251.542,130.000 250.817 C 130.550 250.092,131.673 248.756,132.495 247.849 C 133.317 246.942,133.992 246.085,133.995 245.944 C 134.001 245.610,145.200 234.403,145.541 234.389 C 145.683 234.383,146.550 233.708,147.468 232.889 C 148.385 232.070,149.608 231.040,150.186 230.600 C 150.764 230.160,151.775 229.305,152.432 228.700 C 153.090 228.095,153.731 227.600,153.858 227.600 C 153.985 227.600,155.247 226.790,156.663 225.800 C 158.080 224.810,159.410 224.000,159.619 224.000 C 159.829 224.000,160.000 223.853,160.000 223.674 C 160.000 223.495,160.585 223.044,161.300 222.673 C 162.015 222.301,163.680 221.365,165.000 220.592 C 166.320 219.819,168.030 218.875,168.800 218.493 C 169.570 218.112,170.292 217.679,170.404 217.532 C 170.516 217.384,171.101 217.140,171.704 216.988 C 172.307 216.837,172.800 216.560,172.800 216.373 C 172.800 216.185,173.565 215.809,174.500 215.536 C 175.435 215.262,176.290 214.921,176.400 214.777 C 176.510 214.634,177.292 214.290,178.139 214.014 C 178.985 213.738,180.155 213.263,180.739 212.959 C 181.322 212.654,182.115 212.404,182.500 212.402 C 182.885 212.401,183.200 212.245,183.200 212.055 C 183.200 211.865,184.280 211.480,185.600 211.200 C 186.920 210.920,188.000 210.552,188.000 210.382 C 188.000 210.212,189.260 209.847,190.800 209.572 C 192.340 209.297,193.600 208.944,193.600 208.787 C 193.600 208.631,194.541 208.378,195.690 208.226 C 196.840 208.073,197.965 207.796,198.190 207.609 C 198.416 207.422,200.490 207.047,202.800 206.776 C 205.110 206.504,207.202 206.126,207.448 205.935 C 207.694 205.745,210.176 205.473,212.963 205.332 C 215.750 205.191,218.124 204.923,218.239 204.738 C 218.512 204.296,233.200 204.297,233.200 204.738 C 233.200 204.925,235.544 205.195,238.409 205.340 C 241.273 205.485,243.928 205.767,244.309 205.966 C 244.689 206.165,246.980 206.545,249.400 206.811 C 251.820 207.077,253.890 207.429,254.000 207.593 C 254.110 207.758,255.232 208.019,256.494 208.174 C 257.755 208.329,258.881 208.607,258.995 208.792 C 259.109 208.977,260.462 209.353,262.001 209.628 C 263.541 209.903,264.800 210.246,264.800 210.391 C 264.800 210.535,265.970 210.886,267.400 211.170 C 268.830 211.454,270.000 211.847,270.000 212.043 C 270.000 212.240,270.315 212.406,270.700 212.414 C 271.085 212.421,272.120 212.775,273.000 213.200 C 273.880 213.625,274.835 213.979,275.122 213.986 C 275.409 213.994,276.405 214.347,277.336 214.771 C 278.266 215.195,279.517 215.664,280.114 215.814 C 280.711 215.964,281.200 216.247,281.200 216.443 C 281.200 216.640,281.460 216.800,281.779 216.800 C 282.097 216.800,283.204 217.250,284.238 217.800 C 285.273 218.350,286.347 218.800,286.626 218.800 C 286.905 218.800,287.193 218.942,287.267 219.114 C 287.340 219.287,289.020 220.253,291.000 221.260 C 295.746 223.674,297.357 224.548,297.600 224.844 C 297.710 224.978,298.340 225.389,299.000 225.756 C 299.660 226.124,300.740 226.777,301.400 227.208 C 302.060 227.639,303.050 228.215,303.600 228.488 C 304.150 228.760,304.711 229.139,304.846 229.328 C 304.981 229.517,305.471 229.881,305.934 230.136 C 308.013 231.281,318.900 239.211,319.320 239.886 C 319.496 240.169,319.886 240.400,320.187 240.400 C 320.487 240.400,320.793 240.552,320.867 240.739 C 320.940 240.925,322.520 242.310,324.378 243.816 C 326.235 245.323,328.055 246.835,328.422 247.178 C 328.789 247.520,330.131 248.700,331.404 249.800 C 332.677 250.900,334.080 252.115,334.521 252.500 C 335.976 253.770,336.929 253.135,341.349 247.948 C 341.981 247.207,342.971 246.051,343.549 245.380 C 344.127 244.709,345.410 243.200,346.400 242.027 C 347.390 240.853,348.920 239.112,349.800 238.157 C 350.680 237.202,351.580 236.187,351.800 235.902 C 352.020 235.617,352.897 234.578,353.749 233.592 C 354.601 232.606,356.041 230.934,356.949 229.875 C 357.857 228.816,359.165 227.345,359.855 226.606 C 360.546 225.867,361.392 224.861,361.736 224.371 C 362.079 223.880,363.179 222.624,364.180 221.580 C 365.181 220.535,366.000 219.559,366.000 219.409 C 366.000 219.260,366.675 218.461,367.500 217.634 C 369.237 215.894,372.867 211.741,373.285 211.017 C 373.442 210.746,374.252 209.814,375.085 208.948 C 375.918 208.081,377.410 206.403,378.400 205.219 C 380.503 202.704,381.886 201.088,383.000 199.843 C 383.440 199.351,384.610 197.984,385.600 196.805 C 386.590 195.626,388.082 193.951,388.917 193.082 C 389.751 192.214,390.920 190.864,391.516 190.084 C 392.111 189.303,393.139 188.082,393.799 187.371 C 397.488 183.397,397.599 182.772,395.003 180.543 C 394.014 179.694,391.791 177.650,390.062 176.000 C 384.977 171.145,379.075 166.000,378.593 166.000 C 378.427 166.000,377.896 165.595,377.413 165.100 C 376.085 163.739,373.973 162.013,373.036 161.521 C 372.576 161.280,372.056 160.839,371.880 160.542 C 371.704 160.244,371.389 160.000,371.180 160.000 C 370.971 160.000,370.467 159.685,370.061 159.300 C 369.654 158.915,368.889 158.294,368.361 157.920 C 367.832 157.546,366.422 156.511,365.228 155.620 C 364.033 154.729,362.895 154.000,362.699 154.000 C 362.503 154.000,362.108 153.775,361.820 153.500 C 361.260 152.964,360.889 152.707,357.800 150.718 C 356.700 150.009,355.710 149.329,355.600 149.207 C 355.490 149.084,354.950 148.760,354.400 148.488 C 353.850 148.215,352.860 147.635,352.200 147.200 C 351.540 146.765,350.550 146.184,350.000 145.909 C 349.450 145.634,348.762 145.183,348.472 144.905 C 348.182 144.628,347.507 144.291,346.972 144.157 C 346.437 144.023,346.000 143.767,346.000 143.588 C 346.000 143.409,345.325 143.042,344.500 142.773 C 343.675 142.504,342.910 142.175,342.800 142.042 C 342.130 141.232,333.019 136.800,332.022 136.800 C 331.790 136.800,331.600 136.632,331.600 136.427 C 331.600 136.222,331.195 135.930,330.700 135.779 C 329.843 135.518,327.694 134.619,324.932 133.367 C 324.234 133.051,323.109 132.682,322.432 132.546 C 321.754 132.411,321.200 132.160,321.200 131.990 C 321.200 131.819,320.300 131.464,319.200 131.200 C 318.100 130.936,317.200 130.574,317.200 130.395 C 317.200 130.217,316.480 129.949,315.600 129.800 C 314.720 129.651,314.000 129.390,314.000 129.219 C 314.000 129.049,312.920 128.680,311.600 128.400 C 310.280 128.120,309.200 127.752,309.200 127.582 C 309.200 127.412,307.940 127.047,306.400 126.772 C 304.860 126.497,303.600 126.132,303.600 125.960 C 303.600 125.789,302.788 125.527,301.795 125.378 C 300.802 125.229,299.900 124.961,299.789 124.782 C 299.678 124.603,298.240 124.239,296.594 123.973 C 294.947 123.708,293.600 123.353,293.600 123.184 C 293.600 123.016,292.520 122.753,291.199 122.600 C 289.879 122.447,288.711 122.180,288.604 122.006 C 288.497 121.833,286.607 121.462,284.405 121.181 C 282.202 120.900,280.400 120.544,280.400 120.390 C 280.400 120.235,278.150 119.873,275.400 119.584 C 272.650 119.296,270.400 118.929,270.400 118.768 C 270.400 118.608,268.465 118.349,266.100 118.192 C 263.735 118.035,261.620 117.766,261.400 117.594 C 261.180 117.423,257.130 117.081,252.400 116.834 C 247.670 116.588,242.540 116.286,241.000 116.162 C 235.937 115.758,215.267 115.569,215.046 115.925 " stroke="none" fill="#3c44ac" fill-rule="evenodd"></path></g></svg>